<svg width="27" height="24" viewBox="0 0 27 24" fill="none" xmlns="http://www.w3.org/2000/svg">
<path d="M13.875 21.75H11.25V15.8803L19.1597 7.97109C19.8872 7.24359 19.372 6 18.3431 6H1.15686C0.127957 6 -0.387199 7.24359 0.340301 7.97109L8.24999 15.8803V21.75H5.62499C4.58952 21.75 3.74999 22.5895 3.74999 23.625C3.74999 23.8322 3.9178 24 4.12499 24H15.375C15.5822 24 15.75 23.8322 15.75 23.625C15.75 22.5895 14.9105 21.75 13.875 21.75ZM20.25 0C17.3151 0 14.843 1.88438 13.9134 4.5H16.3762C17.1567 3.16172 18.592 2.25 20.25 2.25C22.7311 2.25 24.75 4.26844 24.75 6.75C24.75 9.23156 22.7311 11.25 20.25 11.25C19.5919 11.25 18.9708 11.1 18.4069 10.845L16.7541 12.4978C17.7764 13.1212 18.9651 13.5 20.25 13.5C23.978 13.5 27 10.478 27 6.75C27 3.02203 23.978 0 20.25 0Z" fill="#525252"/>
</svg>
