<svg width="30" height="30" viewBox="0 0 30 30" fill="none" xmlns="http://www.w3.org/2000/svg">
<g clip-path="url(#clip0_2050_9)">
<path d="M29.4585 10.6356C29.4063 10.4281 29.2686 10.2528 29.0801 10.1517C28.8921 10.0511 28.6699 10.034 28.4683 10.1049C26.7007 10.7259 23.9736 11.1255 20.9063 11.1255C20.1606 11.1255 19.4419 11.097 18.7451 11.0522C18.3848 12.68 17.8091 14.1747 17.0737 15.4911C17.1095 15.4897 17.1437 15.4838 17.1797 15.4838C18.1329 15.4838 18.9053 15.4043 18.9053 16.0464C18.9053 16.6884 18.1328 17.809 17.1797 17.809C16.6245 17.809 16.1357 17.6294 15.8203 17.355C14.8678 18.5376 13.7549 19.4702 12.5294 20.0868C13.9111 24.7378 17.1417 28.0005 20.9063 28.0005C25.9287 28.0005 30.0001 22.1942 30.0001 15.0317C30 13.4867 29.8071 12.0082 29.4585 10.6356ZM24.5303 24.2137C24.5142 24.2821 24.4634 24.3378 24.3966 24.3597C24.3296 24.3821 24.2559 24.368 24.2022 24.3226C23.4938 23.7273 22.2887 23.3318 20.9064 23.3318C19.524 23.3318 18.3189 23.7273 17.6105 24.3226C17.5567 24.3675 17.483 24.3817 17.4161 24.3597C17.3493 24.3373 17.2985 24.2821 17.2824 24.2137C17.2237 23.9642 17.1877 23.7069 17.1877 23.4393C17.1877 21.3855 18.8527 19.7206 20.9065 19.7206C22.9602 19.7206 24.6251 21.3856 24.6251 23.4393C24.625 23.7069 24.5889 23.9643 24.5303 24.2137ZM24.6328 17.809C23.6797 17.809 22.9073 16.6883 22.9073 16.0463C22.9073 15.4043 23.6798 15.4838 24.6328 15.4838C25.5859 15.4838 26.3584 16.0043 26.3584 16.6464C26.3584 17.2884 25.5859 17.809 24.6328 17.809Z" fill="#525252"/>
<path d="M18.1875 6.9691C18.1875 5.42426 17.9946 3.94573 17.646 2.57315C17.5938 2.36564 17.4561 2.19028 17.2676 2.08922C17.1563 2.02969 17.0327 1.99945 16.9082 1.99945C16.8232 1.99945 16.7378 2.01346 16.6558 2.04244C14.8882 2.66343 12.1611 3.0629 9.09382 3.0629C6.02645 3.0629 3.29934 2.66343 1.53178 2.04244C1.45025 2.01346 1.3653 1.99945 1.28034 1.99945C1.15589 1.99945 1.03175 2.03001 0.919919 2.08973C0.731941 2.19079 0.593795 2.36609 0.54149 2.57315C0.192923 3.9458 0 5.42426 0 6.9691C0 14.1317 4.07129 19.9379 9.09382 19.9379C14.1162 19.9379 18.1875 14.1317 18.1875 6.9691ZM3.64157 8.58096C3.64157 7.93879 4.41409 7.41835 5.36723 7.41835C6.3203 7.41835 7.09282 8.53886 7.09282 9.18103C7.09282 9.82307 6.3203 9.74357 5.36723 9.74357C4.41409 9.74357 3.64157 9.223 3.64157 8.58096ZM9.09382 17.4862C7.04001 17.4862 5.37509 15.8212 5.37509 13.7676C5.37509 13.5 5.41116 13.2426 5.46974 12.993C5.48585 12.9248 5.53669 12.8696 5.60352 12.847C5.67046 12.8251 5.74413 12.8392 5.7979 12.8842C6.50632 13.4794 7.7114 13.8749 9.09375 13.8749C10.4761 13.8749 11.6812 13.4794 12.3895 12.8842C12.4434 12.8387 12.517 12.8246 12.5839 12.847C12.6508 12.8691 12.7016 12.9248 12.7177 12.993C12.7763 13.2426 12.8124 13.5 12.8124 13.7676C12.8125 15.8212 11.1475 17.4862 9.09382 17.4862ZM11.0947 9.18103C11.0947 8.53886 11.8672 7.41835 12.8203 7.41835C13.7734 7.41835 14.5459 7.93879 14.5459 8.58096C14.5459 9.223 13.7734 9.74357 12.8203 9.74357C11.8672 9.74357 11.0947 9.82307 11.0947 9.18103Z" fill="#525252"/>
</g>
<defs>
<clipPath id="clip0_2050_9">
<rect width="30" height="30" fill="white"/>
</clipPath>
</defs>
</svg>
