<svg xmlns="http://www.w3.org/2000/svg" width="30" height="24" fill="none" viewBox="0 0 30 24"><path fill="#525252" d="M7.5 3c0-1.65469 1.34531-3 3-3H27c1.6547 0 3 1.34531 3 3v13.5c0 1.6547-1.3453 3-3 3H15.7875c-.5531-1.1953-1.4016-2.2266-2.4562-3H18V15c0-.8297.6703-1.5 1.5-1.5h3c.8297 0 1.5.6703 1.5 1.5v1.5h3V3H10.5v2.30156C9.61875 4.79062 8.59219 4.5 7.5 4.5zm0 3C9.98362 6 12 8.01638 12 10.5c0 2.4836-2.01638 4.5-4.5 4.5S3 12.9836 3 10.5C3 8.01638 5.01638 6 7.5 6M6.24844 16.5h2.49843C12.2016 16.5 15 19.2984 15 22.7484 15 23.4375 14.4422 24 13.7484 24H1.25156C.557812 24 0 23.4422 0 22.7484 0 19.2984 2.79844 16.5 6.24844 16.5"/></svg>